<mxfile host="app.diagrams.net" modified="2024-01-25T04:28:22.591Z" agent="Mozilla/5.0 (Windows NT 10.0; Win64; x64) AppleWebKit/537.36 (KHTML, like Gecko) Chrome/120.0.0.0 Safari/537.36" etag="jFnNhSjcwQHyMcRWo0R9" version="22.1.21" type="github">
  <diagram name="Page-1" id="r99I44J1DwqgwcmxwbgF">
    <mxGraphModel dx="1507" dy="820" grid="1" gridSize="10" guides="1" tooltips="1" connect="1" arrows="1" fold="1" page="1" pageScale="1" pageWidth="1169" pageHeight="827" math="0" shadow="0">
      <root>
        <mxCell id="0" />
        <mxCell id="1" parent="0" />
        <mxCell id="CdfAMLtQ5lH1vqz2NSgi-12" style="rounded=0;orthogonalLoop=1;jettySize=auto;html=1;entryX=0;entryY=0.5;entryDx=0;entryDy=0;fillColor=#e1d5e7;strokeColor=#9673a6;" edge="1" parent="1" source="CdfAMLtQ5lH1vqz2NSgi-1" target="CdfAMLtQ5lH1vqz2NSgi-5">
          <mxGeometry relative="1" as="geometry" />
        </mxCell>
        <mxCell id="CdfAMLtQ5lH1vqz2NSgi-13" style="rounded=0;orthogonalLoop=1;jettySize=auto;html=1;entryX=0;entryY=0.5;entryDx=0;entryDy=0;fillColor=#e1d5e7;strokeColor=#9673a6;" edge="1" parent="1" source="CdfAMLtQ5lH1vqz2NSgi-1" target="CdfAMLtQ5lH1vqz2NSgi-6">
          <mxGeometry relative="1" as="geometry" />
        </mxCell>
        <mxCell id="CdfAMLtQ5lH1vqz2NSgi-14" style="rounded=0;orthogonalLoop=1;jettySize=auto;html=1;entryX=0;entryY=0.5;entryDx=0;entryDy=0;fillColor=#e1d5e7;strokeColor=#9673a6;" edge="1" parent="1" source="CdfAMLtQ5lH1vqz2NSgi-1" target="CdfAMLtQ5lH1vqz2NSgi-7">
          <mxGeometry relative="1" as="geometry" />
        </mxCell>
        <mxCell id="CdfAMLtQ5lH1vqz2NSgi-15" style="rounded=0;orthogonalLoop=1;jettySize=auto;html=1;entryX=0;entryY=0.5;entryDx=0;entryDy=0;fillColor=#e1d5e7;strokeColor=#9673a6;" edge="1" parent="1" source="CdfAMLtQ5lH1vqz2NSgi-1" target="CdfAMLtQ5lH1vqz2NSgi-8">
          <mxGeometry relative="1" as="geometry" />
        </mxCell>
        <mxCell id="CdfAMLtQ5lH1vqz2NSgi-1" value="&lt;font style=&quot;font-size: 15px;&quot;&gt;Number of trait 1&lt;/font&gt;" style="ellipse;whiteSpace=wrap;html=1;aspect=fixed;fillColor=#e1d5e7;strokeColor=#9673a6;" vertex="1" parent="1">
          <mxGeometry x="180" y="230" width="80" height="80" as="geometry" />
        </mxCell>
        <mxCell id="CdfAMLtQ5lH1vqz2NSgi-16" style="rounded=0;orthogonalLoop=1;jettySize=auto;html=1;entryX=0;entryY=0.5;entryDx=0;entryDy=0;fillColor=#e1d5e7;strokeColor=#9673a6;" edge="1" parent="1" source="CdfAMLtQ5lH1vqz2NSgi-2" target="CdfAMLtQ5lH1vqz2NSgi-5">
          <mxGeometry relative="1" as="geometry" />
        </mxCell>
        <mxCell id="CdfAMLtQ5lH1vqz2NSgi-17" style="rounded=0;orthogonalLoop=1;jettySize=auto;html=1;entryX=0;entryY=0.5;entryDx=0;entryDy=0;fillColor=#e1d5e7;strokeColor=#9673a6;" edge="1" parent="1" source="CdfAMLtQ5lH1vqz2NSgi-2" target="CdfAMLtQ5lH1vqz2NSgi-6">
          <mxGeometry relative="1" as="geometry" />
        </mxCell>
        <mxCell id="CdfAMLtQ5lH1vqz2NSgi-19" style="rounded=0;orthogonalLoop=1;jettySize=auto;html=1;entryX=0;entryY=0.5;entryDx=0;entryDy=0;fillColor=#e1d5e7;strokeColor=#9673a6;" edge="1" parent="1" source="CdfAMLtQ5lH1vqz2NSgi-2" target="CdfAMLtQ5lH1vqz2NSgi-7">
          <mxGeometry relative="1" as="geometry" />
        </mxCell>
        <mxCell id="CdfAMLtQ5lH1vqz2NSgi-20" style="rounded=0;orthogonalLoop=1;jettySize=auto;html=1;entryX=0;entryY=0.5;entryDx=0;entryDy=0;fillColor=#e1d5e7;strokeColor=#9673a6;" edge="1" parent="1" source="CdfAMLtQ5lH1vqz2NSgi-2" target="CdfAMLtQ5lH1vqz2NSgi-8">
          <mxGeometry relative="1" as="geometry" />
        </mxCell>
        <mxCell id="CdfAMLtQ5lH1vqz2NSgi-2" value="&lt;font style=&quot;font-size: 15px;&quot;&gt;Number of trait 2&lt;/font&gt;" style="ellipse;whiteSpace=wrap;html=1;aspect=fixed;fillColor=#e1d5e7;strokeColor=#9673a6;" vertex="1" parent="1">
          <mxGeometry x="180" y="350" width="80" height="80" as="geometry" />
        </mxCell>
        <mxCell id="CdfAMLtQ5lH1vqz2NSgi-18" style="rounded=0;orthogonalLoop=1;jettySize=auto;html=1;entryX=0;entryY=0.5;entryDx=0;entryDy=0;fillColor=#e1d5e7;strokeColor=#9673a6;" edge="1" parent="1" source="CdfAMLtQ5lH1vqz2NSgi-3" target="CdfAMLtQ5lH1vqz2NSgi-6">
          <mxGeometry relative="1" as="geometry" />
        </mxCell>
        <mxCell id="CdfAMLtQ5lH1vqz2NSgi-21" style="rounded=0;orthogonalLoop=1;jettySize=auto;html=1;entryX=0;entryY=0.5;entryDx=0;entryDy=0;fillColor=#e1d5e7;strokeColor=#9673a6;" edge="1" parent="1" source="CdfAMLtQ5lH1vqz2NSgi-3" target="CdfAMLtQ5lH1vqz2NSgi-7">
          <mxGeometry relative="1" as="geometry" />
        </mxCell>
        <mxCell id="CdfAMLtQ5lH1vqz2NSgi-22" style="rounded=0;orthogonalLoop=1;jettySize=auto;html=1;entryX=0;entryY=0.5;entryDx=0;entryDy=0;fillColor=#e1d5e7;strokeColor=#9673a6;" edge="1" parent="1" source="CdfAMLtQ5lH1vqz2NSgi-3" target="CdfAMLtQ5lH1vqz2NSgi-8">
          <mxGeometry relative="1" as="geometry" />
        </mxCell>
        <mxCell id="CdfAMLtQ5lH1vqz2NSgi-23" style="rounded=0;orthogonalLoop=1;jettySize=auto;html=1;entryX=0;entryY=0.5;entryDx=0;entryDy=0;fillColor=#e1d5e7;strokeColor=#9673a6;" edge="1" parent="1" source="CdfAMLtQ5lH1vqz2NSgi-3" target="CdfAMLtQ5lH1vqz2NSgi-5">
          <mxGeometry relative="1" as="geometry" />
        </mxCell>
        <mxCell id="CdfAMLtQ5lH1vqz2NSgi-3" value="&lt;font style=&quot;font-size: 15px;&quot;&gt;Number of trait 3&lt;/font&gt;" style="ellipse;whiteSpace=wrap;html=1;aspect=fixed;fillColor=#e1d5e7;strokeColor=#9673a6;" vertex="1" parent="1">
          <mxGeometry x="180" y="470" width="80" height="80" as="geometry" />
        </mxCell>
        <mxCell id="CdfAMLtQ5lH1vqz2NSgi-25" style="rounded=0;orthogonalLoop=1;jettySize=auto;html=1;entryX=0;entryY=0.5;entryDx=0;entryDy=0;" edge="1" parent="1" source="CdfAMLtQ5lH1vqz2NSgi-5" target="CdfAMLtQ5lH1vqz2NSgi-24">
          <mxGeometry relative="1" as="geometry" />
        </mxCell>
        <mxCell id="CdfAMLtQ5lH1vqz2NSgi-5" value="" style="ellipse;whiteSpace=wrap;html=1;aspect=fixed;fillColor=#e1d5e7;strokeColor=#9673a6;" vertex="1" parent="1">
          <mxGeometry x="330" y="180" width="80" height="80" as="geometry" />
        </mxCell>
        <mxCell id="CdfAMLtQ5lH1vqz2NSgi-26" style="rounded=0;orthogonalLoop=1;jettySize=auto;html=1;" edge="1" parent="1" source="CdfAMLtQ5lH1vqz2NSgi-6" target="CdfAMLtQ5lH1vqz2NSgi-24">
          <mxGeometry relative="1" as="geometry" />
        </mxCell>
        <mxCell id="CdfAMLtQ5lH1vqz2NSgi-6" value="" style="ellipse;whiteSpace=wrap;html=1;aspect=fixed;fillColor=#e1d5e7;strokeColor=#9673a6;" vertex="1" parent="1">
          <mxGeometry x="330" y="300" width="80" height="80" as="geometry" />
        </mxCell>
        <mxCell id="CdfAMLtQ5lH1vqz2NSgi-27" style="rounded=0;orthogonalLoop=1;jettySize=auto;html=1;" edge="1" parent="1" source="CdfAMLtQ5lH1vqz2NSgi-7" target="CdfAMLtQ5lH1vqz2NSgi-24">
          <mxGeometry relative="1" as="geometry" />
        </mxCell>
        <mxCell id="CdfAMLtQ5lH1vqz2NSgi-7" value="" style="ellipse;whiteSpace=wrap;html=1;aspect=fixed;fillColor=#e1d5e7;strokeColor=#9673a6;" vertex="1" parent="1">
          <mxGeometry x="330" y="420" width="80" height="80" as="geometry" />
        </mxCell>
        <mxCell id="CdfAMLtQ5lH1vqz2NSgi-29" style="rounded=0;orthogonalLoop=1;jettySize=auto;html=1;entryX=0;entryY=0.5;entryDx=0;entryDy=0;" edge="1" parent="1" source="CdfAMLtQ5lH1vqz2NSgi-8" target="CdfAMLtQ5lH1vqz2NSgi-24">
          <mxGeometry relative="1" as="geometry" />
        </mxCell>
        <mxCell id="CdfAMLtQ5lH1vqz2NSgi-8" value="" style="ellipse;whiteSpace=wrap;html=1;aspect=fixed;fillColor=#e1d5e7;strokeColor=#9673a6;" vertex="1" parent="1">
          <mxGeometry x="330" y="540" width="80" height="80" as="geometry" />
        </mxCell>
        <mxCell id="CdfAMLtQ5lH1vqz2NSgi-24" value="&lt;font style=&quot;font-size: 16px;&quot;&gt;Number of EV&lt;/font&gt;" style="ellipse;whiteSpace=wrap;html=1;aspect=fixed;fillColor=#dae8fc;strokeColor=#6c8ebf;" vertex="1" parent="1">
          <mxGeometry x="480" y="360" width="100" height="100" as="geometry" />
        </mxCell>
        <mxCell id="CdfAMLtQ5lH1vqz2NSgi-31" value="&lt;font style=&quot;font-size: 20px;&quot;&gt;Input &lt;br&gt;layer&lt;/font&gt;" style="text;html=1;align=center;verticalAlign=middle;resizable=0;points=[];autosize=1;strokeColor=default;fillColor=none;" vertex="1" parent="1">
          <mxGeometry x="185" y="670" width="70" height="60" as="geometry" />
        </mxCell>
        <mxCell id="CdfAMLtQ5lH1vqz2NSgi-32" value="&lt;font style=&quot;font-size: 20px;&quot;&gt;Hidden&lt;br&gt;layer&lt;/font&gt;" style="text;html=1;align=center;verticalAlign=middle;resizable=0;points=[];autosize=1;strokeColor=default;fillColor=none;" vertex="1" parent="1">
          <mxGeometry x="320" y="670" width="90" height="60" as="geometry" />
        </mxCell>
        <mxCell id="CdfAMLtQ5lH1vqz2NSgi-33" value="&lt;font style=&quot;font-size: 20px;&quot;&gt;Output&lt;br&gt;layer&lt;/font&gt;" style="text;html=1;align=center;verticalAlign=middle;resizable=0;points=[];autosize=1;strokeColor=default;fillColor=none;" vertex="1" parent="1">
          <mxGeometry x="490" y="670" width="80" height="60" as="geometry" />
        </mxCell>
        <mxCell id="CdfAMLtQ5lH1vqz2NSgi-35" style="edgeStyle=orthogonalEdgeStyle;rounded=0;orthogonalLoop=1;jettySize=auto;html=1;entryX=0;entryY=0.5;entryDx=0;entryDy=0;" edge="1" parent="1" source="CdfAMLtQ5lH1vqz2NSgi-34" target="CdfAMLtQ5lH1vqz2NSgi-1">
          <mxGeometry relative="1" as="geometry" />
        </mxCell>
        <mxCell id="CdfAMLtQ5lH1vqz2NSgi-36" style="edgeStyle=orthogonalEdgeStyle;rounded=0;orthogonalLoop=1;jettySize=auto;html=1;entryX=0;entryY=0.5;entryDx=0;entryDy=0;" edge="1" parent="1" source="CdfAMLtQ5lH1vqz2NSgi-34" target="CdfAMLtQ5lH1vqz2NSgi-2">
          <mxGeometry relative="1" as="geometry" />
        </mxCell>
        <mxCell id="CdfAMLtQ5lH1vqz2NSgi-37" style="edgeStyle=orthogonalEdgeStyle;rounded=0;orthogonalLoop=1;jettySize=auto;html=1;entryX=0;entryY=0.5;entryDx=0;entryDy=0;" edge="1" parent="1" source="CdfAMLtQ5lH1vqz2NSgi-34" target="CdfAMLtQ5lH1vqz2NSgi-3">
          <mxGeometry relative="1" as="geometry" />
        </mxCell>
        <mxCell id="CdfAMLtQ5lH1vqz2NSgi-34" value="&lt;font style=&quot;font-size: 16px;&quot;&gt;Census data&lt;/font&gt;" style="shape=note;whiteSpace=wrap;html=1;backgroundOutline=1;darkOpacity=0.05;fillColor=#fff2cc;strokeColor=#d6b656;" vertex="1" parent="1">
          <mxGeometry x="20" y="350" width="80" height="100" as="geometry" />
        </mxCell>
      </root>
    </mxGraphModel>
  </diagram>
</mxfile>
